<svg width="19" height="19" viewBox="0 0 19 19" fill="none" xmlns="http://www.w3.org/2000/svg">
<g clip-path="url(#clip0_2059_111)">
<path fill-rule="evenodd" clip-rule="evenodd" d="M4.376 2.188C4.376 3.3964 3.3964 4.376 2.188 4.376C0.979601 4.376 0 3.3964 0 2.188C0 0.979601 0.979601 0 2.188 0C3.3964 0 4.376 0.979601 4.376 2.188ZM6.44205 18.173V6.03401H10.06V7.69401H10.111C10.614 6.74101 11.844 5.73401 13.679 5.73401C17.501 5.73401 18.205 8.24701 18.205 11.517V18.174H14.434V12.27C14.434 10.863 14.41 9.05201 12.473 9.05201C10.509 9.05201 10.211 10.586 10.211 12.17V18.173H6.44205ZM4.07505 6.03401H0.300049V18.173H4.07505V6.03401Z" fill="white"/>
</g>
<defs>
<clipPath id="clip0_2059_111">
<rect width="18.205" height="18.174" fill="white"/>
</clipPath>
</defs>
</svg>
